<svg xmlns:xlink="http://www.w3.org/1999/xlink" xmlns="http://www.w3.org/2000/svg" viewBox="0 0 330 110" preserveAspectRatio="xMidYMid meet" class="css-j4agf4" id="hfeegdcd" width="330"  height="110" ><defs id="SvgjsDefs2146"></defs><g id="SvgjsG2147" featurekey="symbolGroupContainer" transform="matrix(1,0,0,1,0,0)" fill="#be8343"><rect xmlns="http://www.w3.org/2000/svg" width="110" height="110" rx="10" ry="10" fill="#be8343"></rect></g><g id="SvgjsG2148" featurekey="ghXSps-0" transform="matrix(0.7001418210246902,0,0,0.7001418210246902,19.982500060093656,20.052510836889034)" fill="#ab5522"><g xmlns="http://www.w3.org/2000/svg" fill="#ab5522"><path d="M99.6,19.9L94.8,15L85,5.2l-4.9-4.9c-0.5-0.5-1.2-0.5-1.7,0l-9.8,9.8c-0.5,0.5-0.5,1.2,0,1.7l1.5,1.5l-3.3,3.3   c-0.1,0.1-0.1,0.1-0.1,0.2c-5.1-2.6-10.8-4-16.7-4c-9.9,0-19.2,3.9-26.2,10.9c-7,7-10.9,16.3-10.9,26.2c0,5.9,1.4,11.6,4,16.7   c-0.1,0-0.1,0.1-0.2,0.1l-3.3,3.3l-1.5-1.5c-0.5-0.5-1.2-0.5-1.7,0l-9.8,9.8c-0.5,0.5-0.5,1.2,0,1.7L5.2,85l9.8,9.8l4.9,4.9   c0.2,0.2,0.6,0.4,0.9,0.4c0.3,0,0.6-0.1,0.9-0.4l9.8-9.8c0.5-0.5,0.5-1.2,0-1.7l-1.5-1.5l3.3-3.3c0.1-0.1,0.1-0.1,0.1-0.2   c5.2,2.6,11,4,16.7,4c9.5,0,19-3.6,26.2-10.8c7-7,10.9-16.3,10.9-26.2c0-5.9-1.4-11.6-4-16.7c0.1,0,0.1-0.1,0.2-0.1l3.3-3.3   l1.5,1.5c0.2,0.2,0.6,0.4,0.9,0.4c0.3,0,0.6-0.1,0.9-0.4l9.8-9.8C100.1,21.1,100.1,20.3,99.6,19.9z M92.2,15.9l-8,8l-8-8l8-8   L92.2,15.9z M79.3,2.9l3.2,3.2l-8,8L71.2,11L79.3,2.9z M11,71.2l1.5,1.5c0,0,0,0,0,0l1.6,1.6l-8,8l-3.2-3.2L11,71.2z M7.8,84.1l8-8   l8,8l-8,8L7.8,84.1z M20.7,97.1l-3.2-3.2l8-8l1.6,1.6l0,0l1.5,1.5L20.7,97.1z M28.1,84.9l-1.6-1.6l-9.8-9.8l-1.6-1.6l3-3   c1.6,2.6,3.4,5.1,5.6,7.3c2.2,2.2,4.7,4.1,7.3,5.6L28.1,84.9z M74.5,74.5C61,88,39,88,25.5,74.5C19,68,15.3,59.3,15.3,50   S19,32,25.5,25.5S40.7,15.3,50,15.3S68,19,74.5,25.5C81,32,84.7,40.7,84.7,50S81,68,74.5,74.5z M81.9,31.1   c-1.6-2.6-3.4-5.1-5.6-7.3c-2.2-2.2-4.7-4.1-7.3-5.6l3-3l13,13L81.9,31.1z M89,28.8l-3.2-3.2l8-8l3.2,3.2L89,28.8z" fill="#ab5522"></path><path d="M59.7,30.7c-2.8-2.8-7.6-2.8-10.3,0L30.7,49.4c-2.9,2.9-2.9,7.5,0,10.3l1.1,1.1C33.2,62.2,35,63,37,63c2,0,3.8-0.8,5.2-2.1   l18.7-18.7c1.4-1.4,2.1-3.2,2.1-5.2c0-2-0.8-3.8-2.1-5.2L59.7,30.7z M59.1,40.4L40.4,59.1c-1.8,1.8-5.1,1.8-6.9,0L32.4,58   c-1.9-1.9-1.9-5,0-6.9l18.7-18.7c0.9-0.9,2.1-1.4,3.4-1.4c1.3,0,2.5,0.5,3.4,1.4l1.1,1.1c0.9,0.9,1.4,2.1,1.4,3.4   C60.6,38.3,60.1,39.5,59.1,40.4z" fill="#ab5522"></path><path d="M29.6,29.6c-5.4,5.4-8.4,12.7-8.4,20.4c0,7.7,3,14.9,8.4,20.4s12.7,8.4,20.4,8.4s14.9-3,20.4-8.4s8.4-12.7,8.4-20.4   c0-7.7-3-14.9-8.4-20.4C59.1,18.4,40.9,18.4,29.6,29.6z M68.6,68.6c-5,5-11.6,7.7-18.6,7.7s-13.7-2.7-18.6-7.7   c-5-5-7.7-11.6-7.7-18.6c0-7,2.7-13.7,7.7-18.6c5.1-5.1,11.9-7.7,18.6-7.7s13.5,2.6,18.6,7.7c5,5,7.7,11.6,7.7,18.6   C76.4,57,73.6,63.7,68.6,68.6z" fill="#ab5522"></path><ellipse transform="matrix(0.7071 -0.7071 0.7071 0.7071 -16.8119 62.6688)" cx="67.2" cy="51.6" rx="2.8" ry="2.8" fill="#ab5522"></ellipse><ellipse transform="matrix(0.7071 -0.7071 0.7071 0.7071 -26.5688 58.6277)" cx="57.5" cy="61.4" rx="2.8" ry="2.8" fill="#ab5522"></ellipse><ellipse transform="matrix(0.7071 -0.7071 0.7071 0.7071 -32.4219 56.195)" cx="51.6" cy="67.2" rx="2.8" ry="2.8" fill="#ab5522"></ellipse></g></g><g id="SvgjsG2149" featurekey="anH1Ye-0" transform="matrix(5.35618637339879,0,0,5.35618637339879,126.03642043633639,-23.673159927044683)" fill="#be8343"><path d="M10.88 19.66 c-0.56 0.22666 -1.0966 0.37664 -1.61 0.44998 s-1.0833 0.11 -1.71 0.11 c-1.1333 0 -2.1266 -0.18 -2.98 -0.54 s-1.5633 -0.86334 -2.13 -1.51 s-0.99332 -1.4167 -1.28 -2.31 s-0.43 -1.8733 -0.43 -2.94 s0.14666 -2.0534 0.44 -2.96 s0.72334 -1.6867 1.29 -2.34 s1.27 -1.1633 2.11 -1.53 s1.8 -0.55 2.88 -0.55 c0.62666 0 1.1933 0.06 1.7 0.18 s1 0.28666 1.48 0.5 l-0.82 2.66 c-0.26666 -0.12 -0.56332 -0.22666 -0.88998 -0.32 s-0.71666 -0.14 -1.17 -0.14 c-2.3734 0 -3.56 1.5 -3.56 4.5 c0 1.5067 0.30666 2.62 0.92 3.34 s1.56 1.08 2.84 1.08 c0.42666 0 0.80332 -0.03 1.13 -0.09 s0.65 -0.15 0.97 -0.27 z M15.84 9.56 l0 10.44 l-3.02 0 l0 -7.22 l0.1 -0.72 l-1.72 0 l1.36 -2.5 l3.28 0 z M15.760000000000002 8.7 l-3 0 l0 -2.72 l3 0 l0 2.72 z M22.240000000000002 9.44 c0.69334 0 1.3166 0.096622 1.87 0.28996 s1.0167 0.50668 1.39 0.94002 s0.66 0.99 0.86 1.67 s0.3 1.5 0.3 2.46 l0 0.31 l-0.04 0.63 l-5.6 0 l-0.42 -0.06 c0.01334 0.38666 0.05668 0.69666 0.13002 0.93 s0.18 0.41668 0.32 0.55002 s0.31 0.22668 0.51 0.28002 s0.42666 0.08668 0.68 0.10002 c0.41334 0.02666 0.77 -0.03334 1.07 -0.18 s0.58334 -0.44666 0.85 -0.9 c0.41334 0.13334 0.79334 0.26 1.14 0.38 c0.29334 0.10666 0.56 0.2 0.8 0.28 s0.36 0.11334 0.36 0.1 c-0.48 1 -1.0633 1.73 -1.75 2.19 s-1.51 0.69 -2.47 0.69 c-0.70666 0 -1.3467 -0.09334 -1.92 -0.28 s-1.06 -0.49 -1.46 -0.91 s-0.71 -0.96666 -0.93 -1.64 s-0.33 -1.4967 -0.33 -2.47 c0 -0.94666 0.11 -1.7567 0.33 -2.43 s0.53 -1.2267 0.93 -1.66 s0.88666 -0.75334 1.46 -0.96 s1.2133 -0.31 1.92 -0.31 z M23.340000000000003 13.440000000000001 l0.30004 0.04 c-0.02666 -0.46666 -0.15 -0.83 -0.37 -1.09 s-0.56334 -0.39 -1.03 -0.39 c-0.53334 0 -0.91668 0.13 -1.15 0.39 s-0.37668 0.62334 -0.43002 1.09 c0.06666 -0.01334 0.12666 -0.02334 0.18 -0.03 s0.11334 -0.01 0.18 -0.01 l2.32 0 z M28.92 12.04 l-1.68 0 l1.32 -2.48 l2.9 0 l0.26 1.12 c0.33334 -0.36 0.73 -0.66 1.19 -0.9 s0.99 -0.36 1.59 -0.36 c1.2133 0 2.1134 0.32334 2.7 0.97 s0.88 1.67 0.88 3.07 l0 6.54 l-3.04 0 l0 -6.02 c0 -0.61334 -0.15 -1.0533 -0.45 -1.32 s-0.68334 -0.4 -1.15 -0.4 c-0.38666 0 -0.73332 0.13 -1.04 0.39 s-0.46 0.69 -0.46 1.29 l0 6.06 l-3.02 0 l0 -7.96 z" fill="#be8343"></path></g><g id="SvgjsG2150" featurekey="XxVAgm-0" transform="matrix(0.7097232002629407,0,0,0.7097232002629407,129.5031938951849,90.88360530310598)" fill="#be8343"><path d="M11.58 6 l-7.34 12.1 l7.42 0 l0 1.9 l-10.96 0 l7.34 -12.1 l-6.92 0 l0 -1.9 l10.46 0 z M26.055999999999997 17.96 l6.34 0 l0 2.04 l-6.74 0 l-1.8 0 l0 -14 l2.2 0 l6.16 0 l0 2.04 l-6.16 0 l0 3.92 l4.74 0 l0 2 l-4.74 0 l0 4 z M55.391999999999996 20 l-2.36 0 l-3.3 -4.88 l-0.24 0 l-2.5 0 l0 4.88 l-2.2 0 l0 -14 l4.7 0 c3.14 0 5.06 1.92 5.06 4.62 c0 1.96 -1.02 3.46 -2.78 4.12 z M46.992 8.04 l0 5.16 l2.4 0 c1.78 0 2.96 -0.84 2.96 -2.58 s-1.18 -2.58 -2.96 -2.58 l-2.4 0 z M74.38799999999999 5.800000000000001 c3.76 0 7.2 2.96 7.2 7.2 s-3.44 7.2 -7.2 7.2 s-7.2 -2.96 -7.2 -7.2 s3.44 -7.2 7.2 -7.2 z M74.38799999999999 18.12 c2.58 0 4.92 -2.12 4.92 -5.12 s-2.34 -5.12 -4.92 -5.12 s-4.92 2.12 -4.92 5.12 s2.34 5.12 4.92 5.12 z M119.51999999999998 6 l0 2.04 l-3.72 0 l0 11.96 l-2.2 0 l0 -11.96 l-3.72 0 l0 -2.04 l9.64 0 z M138.71599999999998 5.800000000000001 c3.76 0 7.2 2.96 7.2 7.2 s-3.44 7.2 -7.2 7.2 s-7.2 -2.96 -7.2 -7.2 s3.44 -7.2 7.2 -7.2 z M138.71599999999998 18.12 c2.58 0 4.92 -2.12 4.92 -5.12 s-2.34 -5.12 -4.92 -5.12 s-4.92 2.12 -4.92 5.12 s2.34 5.12 4.92 5.12 z M178.868 6 l0 14 l-2.2 0 l0 -12.1 l-2.16 0 l0 -1.9 l4.36 0 z M197.184 5.800000000000001 c3.14 0 5.62 2.52 5.62 7.2 c0 4.7 -2.48 7.2 -5.62 7.2 c-3.12 0 -5.62 -2.5 -5.62 -7.2 c0 -4.68 2.5 -7.2 5.62 -7.2 z M197.184 7.699999999999999 c-2.46 0 -3.52 2.48 -3.52 5.3 c0 2.84 1.06 5.3 3.52 5.3 s3.52 -2.46 3.52 -5.3 c0 -2.82 -1.06 -5.3 -3.52 -5.3 z M220.52 5.800000000000001 c3.14 0 5.62 2.52 5.62 7.2 c0 4.7 -2.48 7.2 -5.62 7.2 c-3.12 0 -5.62 -2.5 -5.62 -7.2 c0 -4.68 2.5 -7.2 5.62 -7.2 z M220.52 7.699999999999999 c-2.46 0 -3.52 2.48 -3.52 5.3 c0 2.84 1.06 5.3 3.52 5.3 s3.52 -2.46 3.52 -5.3 c0 -2.82 -1.06 -5.3 -3.52 -5.3 z" fill="#be8343"></path></g></svg>