<svg xmlns:xlink="http://www.w3.org/1999/xlink" xmlns="http://www.w3.org/2000/svg" width="330" height="110" viewBox="0 0 330 110" class="css-1j8o68f"><defs id="SvgjsDefs5145"></defs><g id="SvgjsG5146" featurekey="symbolGroupContainer" transform="matrix(1,0,0,1,0,0)" fill="#be8343"><rect xmlns="http://www.w3.org/2000/svg" width="110" height="110" rx="10" ry="10" fill="#be8343"></rect></g><g id="SvgjsG5147" featurekey="ghXSps-0" transform="matrix(0.7001418210246902,0,0,0.7001418210246902,19.982500060093656,20.052510836889034)" fill="#ab5522"><g xmlns="http://www.w3.org/2000/svg" fill="#ab5522"><path d="M99.6,19.9L94.8,15L85,5.2l-4.9-4.9c-0.5-0.5-1.2-0.5-1.7,0l-9.8,9.8c-0.5,0.5-0.5,1.2,0,1.7l1.5,1.5l-3.3,3.3   c-0.1,0.1-0.1,0.1-0.1,0.2c-5.1-2.6-10.8-4-16.7-4c-9.9,0-19.2,3.9-26.2,10.9c-7,7-10.9,16.3-10.9,26.2c0,5.9,1.4,11.6,4,16.7   c-0.1,0-0.1,0.1-0.2,0.1l-3.3,3.3l-1.5-1.5c-0.5-0.5-1.2-0.5-1.7,0l-9.8,9.8c-0.5,0.5-0.5,1.2,0,1.7L5.2,85l9.8,9.8l4.9,4.9   c0.2,0.2,0.6,0.4,0.9,0.4c0.3,0,0.6-0.1,0.9-0.4l9.8-9.8c0.5-0.5,0.5-1.2,0-1.7l-1.5-1.5l3.3-3.3c0.1-0.1,0.1-0.1,0.1-0.2   c5.2,2.6,11,4,16.7,4c9.5,0,19-3.6,26.2-10.8c7-7,10.9-16.3,10.9-26.2c0-5.9-1.4-11.6-4-16.7c0.1,0,0.1-0.1,0.2-0.1l3.3-3.3   l1.5,1.5c0.2,0.2,0.6,0.4,0.9,0.4c0.3,0,0.6-0.1,0.9-0.4l9.8-9.8C100.1,21.1,100.1,20.3,99.6,19.9z M92.2,15.9l-8,8l-8-8l8-8   L92.2,15.9z M79.3,2.9l3.2,3.2l-8,8L71.2,11L79.3,2.9z M11,71.2l1.5,1.5c0,0,0,0,0,0l1.6,1.6l-8,8l-3.2-3.2L11,71.2z M7.8,84.1l8-8   l8,8l-8,8L7.8,84.1z M20.7,97.1l-3.2-3.2l8-8l1.6,1.6l0,0l1.5,1.5L20.7,97.1z M28.1,84.9l-1.6-1.6l-9.8-9.8l-1.6-1.6l3-3   c1.6,2.6,3.4,5.1,5.6,7.3c2.2,2.2,4.7,4.1,7.3,5.6L28.1,84.9z M74.5,74.5C61,88,39,88,25.5,74.5C19,68,15.3,59.3,15.3,50   S19,32,25.5,25.5S40.7,15.3,50,15.3S68,19,74.5,25.5C81,32,84.7,40.7,84.7,50S81,68,74.5,74.5z M81.9,31.1   c-1.6-2.6-3.4-5.1-5.6-7.3c-2.2-2.2-4.7-4.1-7.3-5.6l3-3l13,13L81.9,31.1z M89,28.8l-3.2-3.2l8-8l3.2,3.2L89,28.8z" fill="#ab5522"></path><path d="M59.7,30.7c-2.8-2.8-7.6-2.8-10.3,0L30.7,49.4c-2.9,2.9-2.9,7.5,0,10.3l1.1,1.1C33.2,62.2,35,63,37,63c2,0,3.8-0.8,5.2-2.1   l18.7-18.7c1.4-1.4,2.1-3.2,2.1-5.2c0-2-0.8-3.8-2.1-5.2L59.7,30.7z M59.1,40.4L40.4,59.1c-1.8,1.8-5.1,1.8-6.9,0L32.4,58   c-1.9-1.9-1.9-5,0-6.9l18.7-18.7c0.9-0.9,2.1-1.4,3.4-1.4c1.3,0,2.5,0.5,3.4,1.4l1.1,1.1c0.9,0.9,1.4,2.1,1.4,3.4   C60.6,38.3,60.1,39.5,59.1,40.4z" fill="#ab5522"></path><path d="M29.6,29.6c-5.4,5.4-8.4,12.7-8.4,20.4c0,7.7,3,14.9,8.4,20.4s12.7,8.4,20.4,8.4s14.9-3,20.4-8.4s8.4-12.7,8.4-20.4   c0-7.7-3-14.9-8.4-20.4C59.1,18.4,40.9,18.4,29.6,29.6z M68.6,68.6c-5,5-11.6,7.7-18.6,7.7s-13.7-2.7-18.6-7.7   c-5-5-7.7-11.6-7.7-18.6c0-7,2.7-13.7,7.7-18.6c5.1-5.1,11.9-7.7,18.6-7.7s13.5,2.6,18.6,7.7c5,5,7.7,11.6,7.7,18.6   C76.4,57,73.6,63.7,68.6,68.6z" fill="#ab5522"></path><ellipse transform="matrix(0.7071 -0.7071 0.7071 0.7071 -16.8119 62.6688)" cx="67.2" cy="51.6" rx="2.8" ry="2.8" fill="#ab5522"></ellipse><ellipse transform="matrix(0.7071 -0.7071 0.7071 0.7071 -26.5688 58.6277)" cx="57.5" cy="61.4" rx="2.8" ry="2.8" fill="#ab5522"></ellipse><ellipse transform="matrix(0.7071 -0.7071 0.7071 0.7071 -32.4219 56.195)" cx="51.6" cy="67.2" rx="2.8" ry="2.8" fill="#ab5522"></ellipse></g></g><g id="SvgjsG5148" featurekey="anH1Ye-0" transform="matrix(4.821601268083488,0,0,4.821601268083488,126.33557963356095,-16.940215374077642)" fill="#be8343"><path d="M7.78 5.380000000000001 c1.6667 0 3.0666 0.47 4.2 1.41 s1.7867 2.1834 1.96 3.73 l-3.04 0 c-0.10666 -0.70666 -0.46 -1.3 -1.06 -1.78 s-1.2867 -0.72 -2.06 -0.72 c-1.2267 0 -2.18 0.44 -2.86 1.32 s-1.02 2.0734 -1.02 3.58 c0 1.4667 0.34334 2.63 1.03 3.49 s1.6367 1.29 2.85 1.29 c0.90666 0 1.64 -0.27666 2.2 -0.83 s0.90666 -1.3433 1.04 -2.37 l3.04 0 c-0.16 1.8133 -0.81 3.24 -1.95 4.28 s-2.5834 1.56 -4.33 1.56 c-2.0934 0 -3.7866 -0.69 -5.08 -2.07 s-1.94 -3.1634 -1.94 -5.35 c0 -2.2134 0.64 -4.0234 1.92 -5.43 s2.98 -2.11 5.1 -2.11 z M18.82 5.720000000000001 l0 2.34 l-2.84 0 l0 -2.34 l2.84 0 z M18.82 9.66 l0 10.34 l-2.84 0 l0 -10.34 l2.84 0 z M25.84 9.38 c0.97334 0 1.84 0.22664 2.6 0.67998 s1.3567 1.11 1.79 1.97 s0.65 1.85 0.65 2.97 c0 0.10666 -0.0066602 0.28 -0.02 0.52 l-7.46 0 c0.02666 0.82666 0.24332 1.47 0.64998 1.93 s1.03 0.69 1.87 0.69 c0.52 0 0.99666 -0.13 1.43 -0.39 s0.71 -0.57666 0.83 -0.95 l2.5 0 c-0.73334 2.32 -2.3466 3.48 -4.84 3.48 c-0.94666 -0.01334 -1.8233 -0.22 -2.63 -0.62 s-1.45 -1.0233 -1.93 -1.87 s-0.72 -1.83 -0.72 -2.95 c0 -1.0533 0.24334 -2.0134 0.73 -2.88 s1.1333 -1.5133 1.94 -1.94 s1.6767 -0.64 2.61 -0.64 z M28.02 13.719999999999999 c-0.13334 -0.77334 -0.38 -1.3333 -0.74 -1.68 s-0.87334 -0.52 -1.54 -0.52 c-0.69334 0 -1.24 0.19666 -1.64 0.59 s-0.63334 0.93 -0.7 1.61 l4.62 0 z M38.480000000000004 9.38 c1.32 0 2.2766 0.33338 2.87 1 s0.89 1.7267 0.89 3.18 l0 6.44 l-2.84 0 l0 -5.86 c0 -0.85334 -0.13666 -1.4867 -0.41 -1.9 s-0.74334 -0.62 -1.41 -0.62 c-0.77334 0 -1.3333 0.23334 -1.68 0.7 s-0.52 1.2333 -0.52 2.3 l0 5.38 l-2.84 0 l0 -10.34 l2.7 0 l0 1.44 l0.06 0 c0.70666 -1.1467 1.7667 -1.72 3.18 -1.72 z" fill="#be8343"></path></g><g id="SvgjsG5149" featurekey="XxVAgm-0" transform="matrix(0.7097232002629407,0,0,0.7097232002629407,129.5031938951849,86.88360530310598)" fill="#be8343"><path d="M11.58 6 l-7.34 12.1 l7.42 0 l0 1.9 l-10.96 0 l7.34 -12.1 l-6.92 0 l0 -1.9 l10.46 0 z M26.055999999999997 17.96 l6.34 0 l0 2.04 l-6.74 0 l-1.8 0 l0 -14 l2.2 0 l6.16 0 l0 2.04 l-6.16 0 l0 3.92 l4.74 0 l0 2 l-4.74 0 l0 4 z M55.391999999999996 20 l-2.36 0 l-3.3 -4.88 l-0.24 0 l-2.5 0 l0 4.88 l-2.2 0 l0 -14 l4.7 0 c3.14 0 5.06 1.92 5.06 4.62 c0 1.96 -1.02 3.46 -2.78 4.12 z M46.992 8.04 l0 5.16 l2.4 0 c1.78 0 2.96 -0.84 2.96 -2.58 s-1.18 -2.58 -2.96 -2.58 l-2.4 0 z M74.38799999999999 5.800000000000001 c3.76 0 7.2 2.96 7.2 7.2 s-3.44 7.2 -7.2 7.2 s-7.2 -2.96 -7.2 -7.2 s3.44 -7.2 7.2 -7.2 z M74.38799999999999 18.12 c2.58 0 4.92 -2.12 4.92 -5.12 s-2.34 -5.12 -4.92 -5.12 s-4.92 2.12 -4.92 5.12 s2.34 5.12 4.92 5.12 z M119.51999999999998 6 l0 2.04 l-3.72 0 l0 11.96 l-2.2 0 l0 -11.96 l-3.72 0 l0 -2.04 l9.64 0 z M138.71599999999998 5.800000000000001 c3.76 0 7.2 2.96 7.2 7.2 s-3.44 7.2 -7.2 7.2 s-7.2 -2.96 -7.2 -7.2 s3.44 -7.2 7.2 -7.2 z M138.71599999999998 18.12 c2.58 0 4.92 -2.12 4.92 -5.12 s-2.34 -5.12 -4.92 -5.12 s-4.92 2.12 -4.92 5.12 s2.34 5.12 4.92 5.12 z M178.868 6 l0 14 l-2.2 0 l0 -12.1 l-2.16 0 l0 -1.9 l4.36 0 z M197.184 5.800000000000001 c3.14 0 5.62 2.52 5.62 7.2 c0 4.7 -2.48 7.2 -5.62 7.2 c-3.12 0 -5.62 -2.5 -5.62 -7.2 c0 -4.68 2.5 -7.2 5.62 -7.2 z M197.184 7.699999999999999 c-2.46 0 -3.52 2.48 -3.52 5.3 c0 2.84 1.06 5.3 3.52 5.3 s3.52 -2.46 3.52 -5.3 c0 -2.82 -1.06 -5.3 -3.52 -5.3 z M220.52 5.800000000000001 c3.14 0 5.62 2.52 5.62 7.2 c0 4.7 -2.48 7.2 -5.62 7.2 c-3.12 0 -5.62 -2.5 -5.62 -7.2 c0 -4.68 2.5 -7.2 5.62 -7.2 z M220.52 7.699999999999999 c-2.46 0 -3.52 2.48 -3.52 5.3 c0 2.84 1.06 5.3 3.52 5.3 s3.52 -2.46 3.52 -5.3 c0 -2.82 -1.06 -5.3 -3.52 -5.3 z" fill="#be8343"></path></g></svg>