<svg xmlns:xlink="http://www.w3.org/1999/xlink" xmlns="http://www.w3.org/2000/svg" class="css-ze2te4 css-qd6ojx" viewBox="0 0 70 70.13670905781161" width="110"  height="110" ><g transform="translate(-0.01749993990634547, -0.05251083688903353) scale(0.7001418210246902)" class="css-1e98oqk" fill="#FFFFFF"><g xmlns="http://www.w3.org/2000/svg" fill="#FFFFFF"><path d="M99.6,19.9L94.8,15L85,5.2l-4.9-4.9c-0.5-0.5-1.2-0.5-1.7,0l-9.8,9.8c-0.5,0.5-0.5,1.2,0,1.7l1.5,1.5l-3.3,3.3   c-0.1,0.1-0.1,0.1-0.1,0.2c-5.1-2.6-10.8-4-16.7-4c-9.9,0-19.2,3.9-26.2,10.9c-7,7-10.9,16.3-10.9,26.2c0,5.9,1.4,11.6,4,16.7   c-0.1,0-0.1,0.1-0.2,0.1l-3.3,3.3l-1.5-1.5c-0.5-0.5-1.2-0.5-1.7,0l-9.8,9.8c-0.5,0.5-0.5,1.2,0,1.7L5.2,85l9.8,9.8l4.9,4.9   c0.2,0.2,0.6,0.4,0.9,0.4c0.3,0,0.6-0.1,0.9-0.4l9.8-9.8c0.5-0.5,0.5-1.2,0-1.7l-1.5-1.5l3.3-3.3c0.1-0.1,0.1-0.1,0.1-0.2   c5.2,2.6,11,4,16.7,4c9.5,0,19-3.6,26.2-10.8c7-7,10.9-16.3,10.9-26.2c0-5.9-1.4-11.6-4-16.7c0.1,0,0.1-0.1,0.2-0.1l3.3-3.3   l1.5,1.5c0.2,0.2,0.6,0.4,0.9,0.4c0.3,0,0.6-0.1,0.9-0.4l9.8-9.8C100.1,21.1,100.1,20.3,99.6,19.9z M92.2,15.9l-8,8l-8-8l8-8   L92.2,15.9z M79.3,2.9l3.2,3.2l-8,8L71.2,11L79.3,2.9z M11,71.2l1.5,1.5c0,0,0,0,0,0l1.6,1.6l-8,8l-3.2-3.2L11,71.2z M7.8,84.1l8-8   l8,8l-8,8L7.8,84.1z M20.7,97.1l-3.2-3.2l8-8l1.6,1.6l0,0l1.5,1.5L20.7,97.1z M28.1,84.9l-1.6-1.6l-9.8-9.8l-1.6-1.6l3-3   c1.6,2.6,3.4,5.1,5.6,7.3c2.2,2.2,4.7,4.1,7.3,5.6L28.1,84.9z M74.5,74.5C61,88,39,88,25.5,74.5C19,68,15.3,59.3,15.3,50   S19,32,25.5,25.5S40.7,15.3,50,15.3S68,19,74.5,25.5C81,32,84.7,40.7,84.7,50S81,68,74.5,74.5z M81.9,31.1   c-1.6-2.6-3.4-5.1-5.6-7.3c-2.2-2.2-4.7-4.1-7.3-5.6l3-3l13,13L81.9,31.1z M89,28.8l-3.2-3.2l8-8l3.2,3.2L89,28.8z" fill="#FFFFFF"></path><path d="M59.7,30.7c-2.8-2.8-7.6-2.8-10.3,0L30.7,49.4c-2.9,2.9-2.9,7.5,0,10.3l1.1,1.1C33.2,62.2,35,63,37,63c2,0,3.8-0.8,5.2-2.1   l18.7-18.7c1.4-1.4,2.1-3.2,2.1-5.2c0-2-0.8-3.8-2.1-5.2L59.7,30.7z M59.1,40.4L40.4,59.1c-1.8,1.8-5.1,1.8-6.9,0L32.4,58   c-1.9-1.9-1.9-5,0-6.9l18.7-18.7c0.9-0.9,2.1-1.4,3.4-1.4c1.3,0,2.5,0.5,3.4,1.4l1.1,1.1c0.9,0.9,1.4,2.1,1.4,3.4   C60.6,38.3,60.1,39.5,59.1,40.4z" fill="#FFFFFF"></path><path d="M29.6,29.6c-5.4,5.4-8.4,12.7-8.4,20.4c0,7.7,3,14.9,8.4,20.4s12.7,8.4,20.4,8.4s14.9-3,20.4-8.4s8.4-12.7,8.4-20.4   c0-7.7-3-14.9-8.4-20.4C59.1,18.4,40.9,18.4,29.6,29.6z M68.6,68.6c-5,5-11.6,7.7-18.6,7.7s-13.7-2.7-18.6-7.7   c-5-5-7.7-11.6-7.7-18.6c0-7,2.7-13.7,7.7-18.6c5.1-5.1,11.9-7.7,18.6-7.7s13.5,2.6,18.6,7.7c5,5,7.7,11.6,7.7,18.6   C76.4,57,73.6,63.7,68.6,68.6z" fill="#FFFFFF"></path><ellipse transform="matrix(0.7071 -0.7071 0.7071 0.7071 -16.8119 62.6688)" cx="67.2" cy="51.6" rx="2.8" ry="2.8" fill="#FFFFFF"></ellipse><ellipse transform="matrix(0.7071 -0.7071 0.7071 0.7071 -26.5688 58.6277)" cx="57.5" cy="61.4" rx="2.8" ry="2.8" fill="#FFFFFF"></ellipse><ellipse transform="matrix(0.7071 -0.7071 0.7071 0.7071 -32.4219 56.195)" cx="51.6" cy="67.2" rx="2.8" ry="2.8" fill="#FFFFFF"></ellipse></g></g></svg>